<svg width="644" height="454" viewBox="0 0 644 454" fill="none" xmlns="http://www.w3.org/2000/svg">
<g clip-path="url(#clip0_53_31)">
<path d="M644 0H0V454H644V0Z" fill="#D9D9D9"/>
<path d="M644 0H0V454H644V0Z" fill="#ECF4DC"/>
<mask id="mask0_53_31" style="mask-type:luminance" maskUnits="userSpaceOnUse" x="253" y="151" width="153" height="153">
<path d="M406 151H253V304H406V151Z" fill="white"/>
</mask>
<g mask="url(#mask0_53_31)">
<path d="M398.35 176.5C402.566 176.48 405.979 173.067 406 168.851C406 164.626 402.575 161.201 398.35 161.201H395.8V158.651C395.815 156.632 395.011 154.693 393.571 153.278C392.151 151.811 390.192 150.988 388.15 151.001C383.925 151.001 380.5 154.426 380.5 158.651V161.201H370.3V158.651C370.315 156.632 369.511 154.693 368.072 153.278C366.651 151.811 364.692 150.988 362.65 151.001C358.425 151.001 355 154.426 355 158.651V161.201H344.8V158.651C344.815 156.632 344.011 154.693 342.572 153.278C341.151 151.811 339.193 150.988 337.15 151.001C332.925 151.001 329.5 154.426 329.5 158.651V161.201H321.062C321.062 155.567 316.495 151.001 310.862 151.001H265.75C258.712 151.009 253.009 156.712 253 163.75V291.25C253.009 298.288 258.712 303.992 265.75 304H393.25C400.288 303.992 405.991 298.288 406 291.25V246.141C406 240.508 401.433 235.941 395.8 235.941V227.501H398.35C402.566 227.48 405.979 224.067 406 219.851C406 215.626 402.575 212.201 398.35 212.201H395.8V202.001H398.35C402.566 201.98 405.979 198.567 406 194.351C406 190.126 402.575 186.701 398.35 186.701H395.8V176.501H398.35V176.5ZM398.35 166.301C399.758 166.301 400.9 167.442 400.9 168.851C400.902 169.538 400.619 170.196 400.12 170.669C399.653 171.141 399.014 171.405 398.35 171.4H395.8V166.301H398.35ZM385.6 158.651C385.6 157.242 386.742 156.101 388.15 156.101C388.837 156.1 389.494 156.382 389.965 156.881C390.441 157.346 390.707 157.985 390.7 158.651V236.976C389.81 237.262 388.971 237.555 388.15 237.846C387.329 238.137 386.475 238.435 385.6 238.71V158.651ZM365.2 176.5V186.7H360.1V176.5H365.2ZM380.5 176.5V186.7H370.3V176.5H380.5ZM344.8 222.4V217.3H380.5V222.4H344.8ZM380.5 191.8V196.901H344.8V191.8H380.5ZM360.1 212.201V202.001H365.2V212.201H360.1ZM344.8 212.201V202.001H355V212.201H344.8ZM370.3 202H380.5V212.2H370.3V202ZM355 186.7H344.8V176.5H355V186.7ZM344.8 227.501H355V236.061C351.922 235.414 348.781 235.109 345.636 235.15C345.348 235.15 345.08 235.184 344.8 235.194V227.501ZM360.1 227.501H365.2V239.2C363.67 238.802 362.313 238.33 360.939 237.846L360.1 237.553V227.501ZM370.3 227.501H380.5V239.865C378.526 240.135 376.535 240.263 374.543 240.25C372.949 240.25 371.559 240.182 370.3 240.067V227.501ZM360.1 158.651C360.1 157.242 361.242 156.101 362.65 156.101C363.337 156.1 363.993 156.382 364.465 156.881C364.941 157.346 365.206 157.985 365.2 158.651V161.201H360.1V158.651ZM380.5 166.301V171.401H344.8V166.301H380.5ZM334.6 158.651C334.6 157.242 335.742 156.101 337.15 156.101C337.837 156.1 338.494 156.382 338.965 156.881C339.441 157.346 339.707 157.985 339.7 158.651V235.928C337.949 236.38 336.243 236.987 334.6 237.741V158.651ZM320.945 202H329.5V212.2H321.806C321.806 211.912 321.85 211.637 321.85 211.343C321.892 208.205 321.588 205.072 320.945 202ZM329.5 186.7H316.936C316.819 185.438 316.75 184.041 316.75 182.437C316.738 180.452 316.865 178.468 317.132 176.5H329.5V186.7ZM329.5 191.8V196.901H319.455C319.353 196.615 319.254 196.324 319.154 196.041C318.673 194.674 318.201 193.328 317.805 191.8H329.5ZM321.07 217.3H329.5V222.4H319.252C320.007 220.757 320.615 219.051 321.07 217.3ZM316.612 227.501H329.5V240.381C323.727 243.55 321.085 244.598 316.75 240.251C312.415 235.903 313.448 233.266 316.612 227.501ZM329.5 171.4H318.28C318.555 170.523 318.851 169.687 319.15 168.851C319.448 168.014 319.731 167.196 320.014 166.301H329.5V171.4ZM400.9 246.141V291.25C400.9 295.475 397.475 298.9 393.25 298.9H265.75C261.525 298.9 258.1 295.475 258.1 291.25V163.75C258.1 159.526 261.525 156.1 265.75 156.1H310.859C312.423 156.102 313.9 156.819 314.868 158.047C315.836 159.275 316.189 160.878 315.827 162.399C315.418 164.005 314.924 165.589 314.345 167.142C312.449 172.015 311.533 177.214 311.65 182.442C311.533 187.669 312.449 192.869 314.345 197.742C316.044 202.07 316.862 206.695 316.75 211.343C316.499 216.093 314.981 220.689 312.354 224.654C309.294 230.214 305.808 236.517 313.142 243.856C320.476 251.195 326.774 247.717 332.333 244.646C336.296 242.02 340.889 240.502 345.637 240.25C350.287 240.139 354.913 240.956 359.243 242.655C364.116 244.552 369.316 245.468 374.543 245.35C379.772 245.468 384.971 244.551 389.843 242.652C391.401 242.074 392.989 241.579 394.599 241.171C396.121 240.809 397.724 241.163 398.952 242.132C400.18 243.1 400.897 244.577 400.9 246.141ZM398.35 217.3C399.758 217.3 400.9 218.442 400.9 219.85C400.902 220.538 400.619 221.196 400.12 221.668C399.653 222.141 399.014 222.405 398.35 222.4H395.8V217.3H398.35ZM398.35 191.8C399.758 191.8 400.9 192.942 400.9 194.35C400.902 195.038 400.619 195.696 400.12 196.168C399.653 196.641 399.014 196.905 398.35 196.9H395.8V191.8H398.35Z" fill="#88BD2F"/>
<path d="M273.4 275.95C269.175 275.95 265.75 279.375 265.75 283.6C265.75 287.825 269.175 291.25 273.4 291.25C277.625 291.25 281.05 287.825 281.05 283.6C281.05 279.375 277.625 275.95 273.4 275.95ZM273.4 286.15C271.992 286.15 270.85 285.008 270.85 283.6C270.85 282.192 271.992 281.05 273.4 281.05C274.808 281.05 275.95 282.192 275.95 283.6C275.95 285.008 274.808 286.15 273.4 286.15Z" fill="#88BD2F"/>
<path d="M298.9 163.75C294.675 163.75 291.25 167.175 291.25 171.4C291.25 175.625 294.675 179.05 298.9 179.05C303.125 179.05 306.55 175.625 306.55 171.4C306.55 167.175 303.125 163.75 298.9 163.75ZM298.9 173.95C297.492 173.95 296.35 172.808 296.35 171.4C296.35 169.992 297.492 168.85 298.9 168.85C300.308 168.85 301.45 169.992 301.45 171.4C301.45 172.808 300.308 173.95 298.9 173.95Z" fill="#88BD2F"/>
<path d="M275.948 270.85C277.356 270.85 278.498 269.708 278.498 268.3C278.498 266.892 277.356 265.75 275.948 265.75C274.54 265.75 273.398 266.892 273.398 268.3C273.398 269.708 274.54 270.85 275.948 270.85Z" fill="#88BD2F"/>
<path d="M293.8 189.25C295.208 189.25 296.35 188.108 296.35 186.7C296.35 185.292 295.208 184.15 293.8 184.15C292.392 184.15 291.25 185.292 291.25 186.7C291.25 188.108 292.392 189.25 293.8 189.25Z" fill="#88BD2F"/>
<path d="M390.698 255.55C392.106 255.55 393.248 254.408 393.248 253C393.248 251.592 392.106 250.45 390.698 250.45C389.29 250.45 388.148 251.592 388.148 253C388.148 254.408 389.29 255.55 390.698 255.55Z" fill="#88BD2F"/>
<path fill-rule="evenodd" clip-rule="evenodd" d="M376.383 276.488C375.566 277.12 375.212 278.183 375.486 279.178C375.759 280.174 376.605 280.907 377.63 281.034C378.655 281.161 379.655 280.658 380.164 279.76C380.673 278.861 380.589 277.745 379.953 276.932C379.088 275.826 377.492 275.628 376.383 276.488Z" fill="#88BD2F"/>
<path fill-rule="evenodd" clip-rule="evenodd" d="M371.281 250.988C370.464 251.621 370.11 252.683 370.384 253.679C370.657 254.674 371.503 255.407 372.528 255.534C373.553 255.662 374.553 255.159 375.062 254.26C375.57 253.362 375.487 252.245 374.851 251.432C373.985 250.327 372.39 250.128 371.281 250.988Z" fill="#88BD2F"/>
</g>
</g>
<defs>
<clipPath id="clip0_53_31">
<rect width="644" height="454" fill="white"/>
</clipPath>
</defs>
</svg>
