<svg width="644" height="454" viewBox="0 0 644 454" fill="none" xmlns="http://www.w3.org/2000/svg">
<g clip-path="url(#clip0_53_89)">
<path d="M644 0H0V454H644V0Z" fill="#D9D9D9"/>
<path d="M644 0H0V454H644V0Z" fill="#ECF4DC"/>
<mask id="mask0_53_89" style="mask-type:luminance" maskUnits="userSpaceOnUse" x="220" y="123" width="182" height="182">
<path d="M402 123H220V305H402V123Z" fill="white"/>
</mask>
<g mask="url(#mask0_53_89)">
<path fill-rule="evenodd" clip-rule="evenodd" d="M377.906 249.771C373.748 249.771 369.59 248.705 365.964 246.572L285.68 200.299C284.72 199.66 284.294 198.38 284.933 197.421L306.79 159.464C307.11 158.931 307.537 158.611 308.07 158.504C308.603 158.291 309.243 158.398 309.669 158.718L389.954 204.991C395.498 208.189 399.443 213.414 401.149 219.598C402.748 225.781 402.002 232.285 398.803 237.83C394.432 245.186 386.542 249.771 377.906 249.771ZM289.625 197.634L368.097 242.947C371.082 244.653 374.494 245.506 377.906 245.506C384.943 245.506 391.553 241.774 395.072 235.697C397.737 231.112 398.377 225.781 396.991 220.77C395.605 215.653 392.406 211.388 387.821 208.722L309.456 163.409L289.625 197.634Z" fill="#88BD2F"/>
<path fill-rule="evenodd" clip-rule="evenodd" d="M328.434 215.759C328.115 215.759 327.688 215.653 327.368 215.439L296.235 197.421C295.169 196.887 294.849 195.608 295.489 194.542L309.669 170.019C310.202 168.953 311.482 168.633 312.548 169.273C313.508 169.806 313.934 171.085 313.294 172.152L300.18 194.862L329.501 211.708C330.46 212.347 330.887 213.627 330.247 214.693C329.927 215.333 329.181 215.759 328.434 215.759Z" fill="#88BD2F"/>
<path fill-rule="evenodd" clip-rule="evenodd" d="M355.836 240.388C355.409 240.388 355.089 240.388 354.769 240.175C353.81 239.642 353.383 238.363 353.916 237.296C355.942 233.458 357.222 228.873 357.968 223.756C359.567 210.641 363.406 200.939 369.27 194.968C370.123 194.115 371.509 194.115 372.362 194.968C373.215 195.715 373.215 197.101 372.362 197.954C368.737 201.579 364.152 209.149 362.126 224.289C361.486 229.94 359.887 234.951 357.648 239.322C357.328 239.962 356.582 240.388 355.836 240.388Z" fill="#88BD2F"/>
<path fill-rule="evenodd" clip-rule="evenodd" d="M280.452 211.388C280.133 211.388 279.706 211.388 279.386 211.175L265.739 203.285C265.312 202.965 264.886 202.538 264.779 202.005C264.566 201.472 264.673 200.832 264.993 200.406L299.431 140.699C299.964 139.739 301.243 139.313 302.31 139.952L315.957 147.842C316.49 148.056 316.81 148.589 316.916 149.122C317.13 149.655 317.023 150.295 316.703 150.721L282.372 210.322C281.945 211.068 281.199 211.388 280.452 211.388ZM269.684 200.619L279.706 206.377L312.012 150.401L301.99 144.644L269.684 200.619Z" fill="#88BD2F"/>
<path fill-rule="evenodd" clip-rule="evenodd" d="M247.188 288.367C238.765 288.367 231.728 281.97 230.662 273.76H222.132C220.96 273.76 220 272.801 220 271.628C220 270.455 220.96 269.496 222.132 269.496H232.688C233.861 269.496 234.82 270.455 234.82 271.628C234.82 278.452 240.364 284.103 247.188 284.103C254.118 284.103 259.663 278.452 259.663 271.628C259.663 270.455 260.622 269.496 261.795 269.496H394.004C395.176 269.496 396.136 270.455 396.136 271.628C396.136 272.801 395.176 273.76 394.004 273.76H263.821C262.755 281.97 255.718 288.367 247.188 288.367Z" fill="#88BD2F"/>
<path fill-rule="evenodd" clip-rule="evenodd" d="M247.186 256.168C238.23 256.168 230.98 248.918 230.98 239.855C230.98 234.951 236.418 224.822 242.601 213.947C243.774 211.921 244.734 210.215 245.374 208.935C245.693 208.296 246.44 207.869 247.186 207.869C248.039 207.869 248.785 208.296 249.105 208.935C249.745 210.215 250.705 211.921 251.877 213.947C258.061 224.822 263.499 234.951 263.499 239.855C263.499 248.918 256.249 256.168 247.186 256.168ZM247.186 214.373C246.973 214.906 246.653 215.439 246.333 215.972C242.388 222.903 235.245 235.697 235.245 239.855C235.245 246.572 240.576 251.903 247.186 251.903C253.903 251.903 259.234 246.572 259.234 239.855C259.234 235.697 251.984 222.903 248.146 215.972C247.826 215.439 247.506 214.906 247.186 214.373Z" fill="#88BD2F"/>
<path fill-rule="evenodd" clip-rule="evenodd" d="M256.675 267.683C256.355 267.683 255.929 267.576 255.609 267.47C254.649 266.83 254.223 265.551 254.863 264.484L260.62 254.675C261.153 253.609 262.433 253.289 263.499 253.822C264.459 254.462 264.885 255.742 264.245 256.808L258.594 266.617C258.168 267.363 257.422 267.683 256.675 267.683Z" fill="#88BD2F"/>
<path fill-rule="evenodd" clip-rule="evenodd" d="M237.804 267.683C237.058 267.683 236.312 267.363 235.885 266.617L230.234 256.808C229.595 255.742 229.915 254.462 230.981 253.822C232.047 253.289 233.326 253.609 233.86 254.675L239.617 264.484C240.15 265.551 239.83 266.83 238.871 267.47C238.444 267.576 238.124 267.683 237.804 267.683Z" fill="#88BD2F"/>
</g>
</g>
<defs>
<clipPath id="clip0_53_89">
<rect width="644" height="454" fill="white"/>
</clipPath>
</defs>
</svg>
