<svg width="644" height="454" viewBox="0 0 644 454" fill="none" xmlns="http://www.w3.org/2000/svg">
<g clip-path="url(#clip0_53_47)">
<path d="M644 0H0V454H644V0Z" fill="#ECF4DC"/>
<mask id="mask0_53_47" style="mask-type:luminance" maskUnits="userSpaceOnUse" x="222" y="117" width="201" height="201">
<path d="M423 117H222V318H423V117Z" fill="white"/>
</mask>
<g mask="url(#mask0_53_47)">
<path d="M287.394 197.072C285.89 195.612 283.663 195.175 281.717 195.958C273.542 199.091 261.546 202.263 253.202 202.263C244.857 202.263 225.462 214.836 214.451 229.711C195.359 228.786 194.11 229.711 193.637 230.126C192.959 230.725 192.802 231.722 193.264 232.5C193.726 233.278 194.676 233.621 195.529 233.317C202.106 232.989 208.697 233.057 215.264 233.523C215.907 233.553 216.519 233.254 216.892 232.731C227.809 217.496 246.448 206.039 253.202 206.039C262.038 206.039 274.564 202.754 283.079 199.468C283.628 199.262 284.249 199.384 284.676 199.786C285.102 200.187 285.261 200.798 285.086 201.356C282.891 207.757 273.014 213.853 265.179 215.553H264.952C264.272 215.798 248.055 221.592 242.246 237.695C241.891 238.676 242.399 239.756 243.382 240.112C244.363 240.466 245.448 239.959 245.803 238.98C250.799 225.198 264.839 219.649 266.125 219.159C269.255 218.431 272.275 217.301 275.113 215.798L272.256 219.555C272.123 219.717 272.02 219.902 271.953 220.103C267.99 218.897 263.694 220.311 261.225 223.631L258.178 228.087C258.128 228.159 258.084 228.234 258.047 228.314C257.509 229.495 257.363 230.819 257.629 232.089C257.171 232.052 256.709 232.052 256.249 232.089C253.678 232.436 251.354 233.794 249.796 235.865L248.717 237.28C247.442 238.96 246.926 241.095 247.298 243.17C247.407 243.744 247.584 244.3 247.828 244.831C245.64 245.257 243.682 246.465 242.322 248.229C240.725 250.399 240.134 253.147 240.696 255.78C240.814 256.259 240.96 256.733 241.13 257.196C237.924 256.93 234.801 258.311 232.842 260.859C231.375 262.851 230.751 265.338 231.102 267.786C230.728 267.879 230.39 268.083 230.137 268.371L221.678 278.414C217.164 284.018 217.511 292.095 222.493 297.291L207.355 314.886C206.672 315.673 206.755 316.864 207.544 317.546C208.338 318.224 209.532 318.132 210.212 317.339L225.538 299.651C227.776 301.023 230.348 301.755 232.975 301.766C233.511 301.802 234.047 301.802 234.583 301.766C238.373 301.362 241.843 299.458 244.214 296.48L249.89 289.42C250.57 288.55 250.413 287.294 249.541 286.616C248.669 285.939 247.411 286.094 246.731 286.966L242.682 292.025C242.597 291.892 242.495 291.772 242.379 291.665L233.6 284.511C233.081 284.046 232.345 283.902 231.689 284.14C231.031 284.378 230.56 284.957 230.46 285.648C230.363 286.337 230.653 287.025 231.214 287.438L240.089 294.517C240.195 294.593 240.309 294.657 240.429 294.705C236.521 298.779 230.087 299.052 225.846 295.323C221.606 291.595 221.07 285.191 224.631 280.811L232.408 271.562C233.14 272.906 234.152 274.076 235.378 274.996L248.188 284.643C250.062 286.101 252.359 286.914 254.735 286.966C256.476 286.973 258.187 286.516 259.693 285.644C262.395 284.111 264.122 281.305 264.272 278.206C264.29 277.835 264.29 277.463 264.272 277.092C266.234 278.587 268.633 279.402 271.101 279.415C272.829 279.439 274.533 279.01 276.041 278.169C278.724 276.692 280.45 273.934 280.601 270.882C280.647 270.316 280.647 269.748 280.601 269.184C281.795 269.707 283.081 269.989 284.385 270.013C289.618 270.01 293.926 265.904 294.168 260.689C294.168 260.442 294.168 260.197 294.168 259.952C294.571 260.053 294.983 260.11 295.398 260.121C297.228 259.983 298.979 259.328 300.45 258.233C303.209 256.499 304.935 253.52 305.066 250.268C305.221 247.132 303.802 244.125 301.282 242.245L297.006 239.035L292.767 235.695L304.669 220.593C304.983 220.199 305.125 219.695 305.066 219.196C305.04 218.687 304.808 218.209 304.423 217.874L297.422 212.513L324.121 179.024C331.664 169.644 345.345 168.017 354.887 175.363L360.942 180.044C361.768 180.685 362.958 180.538 363.601 179.714C364.243 178.89 364.095 177.702 363.269 177.061L357.215 172.38C346.025 163.784 330.003 165.688 321.15 176.665L294.356 210.229L287.582 205.038C288.031 204.282 288.404 203.485 288.7 202.66C289.399 200.702 288.889 198.519 287.394 197.072ZM257.801 282.378C255.406 283.624 252.501 283.351 250.384 281.679L237.573 272.034C234.638 270.074 233.844 266.116 235.795 263.18C236.902 261.743 238.633 260.921 240.45 260.971C242.026 260.964 243.562 261.474 244.82 262.426L252.804 268.428L257.629 272.071C259.516 273.42 260.589 275.629 260.488 277.942C260.412 279.782 259.397 281.456 257.801 282.378ZM274.13 274.827C271.658 276.029 268.712 275.706 266.561 273.997L255.018 265.294L248.907 260.689L247.337 259.518C245.836 258.423 244.794 256.818 244.404 255.005C244.064 253.437 244.408 251.796 245.35 250.494C246.337 249.224 247.828 248.446 249.438 248.362C251.289 248.242 253.12 248.806 254.584 249.947L268.32 260.291L273.827 264.426C275.806 265.842 276.942 268.151 276.854 270.579C276.78 272.391 275.751 274.028 274.148 274.884L274.13 274.827ZM287.564 265.276C285.446 266.581 282.745 266.461 280.753 264.973L276.041 261.482L256.797 246.983C255.515 246.024 254.044 245.342 252.483 244.982C251.649 244.389 251.091 243.484 250.938 242.473C250.785 241.463 251.049 240.435 251.67 239.622L252.729 238.206C253.684 236.926 255.118 236.089 256.703 235.883C258.318 235.662 259.954 236.097 261.243 237.092L283.591 252.194L288 255.516C289.576 256.707 290.467 258.595 290.38 260.565C290.293 262.538 289.24 264.341 287.564 265.388V265.276ZM294.698 241.906L299.011 245.152C300.535 246.288 301.387 248.109 301.282 250.004C301.189 252.017 300.116 253.857 298.407 254.93C295.814 256.572 295.132 256.648 293.58 255.477C293.344 255.3 293.063 255.19 292.767 255.157C292.119 254.087 291.278 253.147 290.289 252.382L285.805 249.022L263.439 234.11C260.866 232.373 261.264 230.673 261.413 230.22L264.309 225.972C266.238 223.358 269.915 222.778 272.559 224.671L294.698 241.906ZM300.526 219.649L289.796 233.241L275.17 221.839L285.956 208.625L300.526 219.649Z" fill="#88BD2F"/>
<path d="M312.416 287.941C312.101 288.331 311.955 288.83 312.012 289.326C312.068 289.823 312.323 290.278 312.719 290.588C313.058 290.844 313.469 290.989 313.895 291C314.478 291.004 315.03 290.74 315.392 290.287L381.586 208.057C382.24 207.243 382.105 206.057 381.283 205.41C380.461 204.761 379.265 204.897 378.61 205.711L312.416 287.941Z" fill="#88BD2F"/>
<path d="M388.413 192.945C387.958 193.512 387.872 194.283 388.19 194.934C388.509 195.582 389.176 195.998 389.91 196C390.489 196.002 391.04 195.746 391.405 195.302L404.587 179.047C405.241 178.233 405.104 177.054 404.28 176.406C403.453 175.763 402.252 175.899 401.595 176.708L388.413 192.945Z" fill="#88BD2F"/>
<path d="M410.337 171.277L417.622 162.046C418.234 161.224 418.088 160.061 417.292 159.418C416.496 158.775 415.339 158.886 414.677 159.667L407.392 168.898C407.085 169.3 406.95 169.811 407.017 170.314C407.085 170.82 407.348 171.275 407.752 171.582C408.095 171.846 408.511 171.991 408.94 172C409.488 171.974 409.998 171.71 410.337 171.277Z" fill="#88BD2F"/>
<path d="M326.706 297.606C327.049 297.861 327.466 297.998 327.896 298C328.468 298.002 329.008 297.747 329.37 297.305L422.485 181.167C422.974 180.65 423.13 179.906 422.887 179.238C422.643 178.573 422.044 178.098 421.336 178.013C420.627 177.929 419.932 178.248 419.537 178.838L326.422 294.958C326.105 295.347 325.957 295.844 326.011 296.341C326.064 296.838 326.313 297.292 326.706 297.606Z" fill="#88BD2F"/>
<path d="M396.78 150.145C395.763 149.751 394.591 150.186 394.159 151.118L386.151 168.469C385.735 169.395 386.206 170.457 387.213 170.853C387.457 170.953 387.723 171.003 387.993 171C388.796 170.998 389.522 170.557 389.834 169.88L397.841 152.547C398.272 151.616 397.797 150.541 396.78 150.145Z" fill="#88BD2F"/>
<path d="M400.602 139.119C399.501 138.745 398.288 139.282 397.888 140.319L397.127 142.319C396.729 143.358 397.298 144.504 398.398 144.879C398.63 144.959 398.872 144.998 399.118 145C400.01 144.998 400.807 144.471 401.112 143.68L401.873 141.68C402.271 140.641 401.702 139.494 400.602 139.119Z" fill="#88BD2F"/>
<path d="M384.88 177.145C384.433 176.953 383.933 176.951 383.487 177.142C383.04 177.332 382.685 177.699 382.501 178.158L379.144 186.393C378.754 187.346 379.185 188.445 380.104 188.85C380.328 188.954 380.569 189.003 380.814 189C381.542 189 382.2 188.549 382.483 187.855L385.86 179.603C386.046 179.144 386.046 178.625 385.864 178.164C385.679 177.702 385.325 177.336 384.88 177.145Z" fill="#88BD2F"/>
<path d="M370.579 161.136C370.391 160.683 370.029 160.324 369.575 160.139C369.119 159.952 368.607 159.954 368.153 160.143C367.209 160.525 366.753 161.594 367.135 162.533L373.432 177.855C373.817 178.792 374.893 179.245 375.841 178.866C376.299 178.683 376.664 178.325 376.856 177.873C377.047 177.42 377.047 176.91 376.859 176.457L370.579 161.136Z" fill="#88BD2F"/>
<path d="M364.582 149.23C364.187 148.215 363.106 147.734 362.16 148.149C361.209 148.565 360.752 149.728 361.136 150.75L363.37 156.634C363.592 157.34 364.158 157.856 364.842 157.975C365.526 158.092 366.216 157.791 366.631 157.195C367.044 156.599 367.116 155.805 366.818 155.133L364.582 149.23Z" fill="#88BD2F"/>
<path d="M341.424 224.288C341.784 224.741 342.328 225.002 342.899 225C343.326 224.998 343.74 224.85 344.072 224.577L355.427 215.302C356.128 214.611 356.194 213.489 355.581 212.716C354.967 211.944 353.877 211.771 353.062 212.32L341.707 221.576C341.315 221.896 341.064 222.364 341.01 222.873C340.958 223.382 341.106 223.891 341.424 224.288Z" fill="#88BD2F"/>
<path d="M357.428 211.261C357.792 211.721 358.346 211.992 358.934 212C359.383 211.998 359.818 211.839 360.165 211.554L370.272 203.466C371.114 202.79 371.245 201.562 370.564 200.724C369.884 199.887 368.651 199.756 367.809 200.434L357.722 208.541C356.889 209.213 356.758 210.428 357.428 211.261Z" fill="#88BD2F"/>
<path d="M359 196H363C364.105 196 365 195.104 365 194C365 192.895 364.105 192 363 192H359C357.896 192 357 192.895 357 194C357 195.104 357.896 196 359 196Z" fill="#88BD2F"/>
<path d="M350.193 192.244L336.789 192C335.8 192 335 192.84 335 193.878C335 194.914 335.8 195.756 336.789 195.756L350.211 196C351.198 196 352 195.158 352 194.122C352 193.619 351.81 193.139 351.469 192.787C351.13 192.435 350.67 192.238 350.193 192.244Z" fill="#88BD2F"/>
</g>
</g>
<defs>
<clipPath id="clip0_53_47">
<rect width="644" height="454" fill="white"/>
</clipPath>
</defs>
</svg>
