<svg width="644" height="454" viewBox="0 0 644 454" fill="none" xmlns="http://www.w3.org/2000/svg">
<g clip-path="url(#clip0_53_18)">
<path d="M644 0H0V454H644V0Z" fill="#D9D9D9"/>
<path d="M644 0H0V454H644V0Z" fill="#ECF4DC"/>
<mask id="mask0_53_18" style="mask-type:luminance" maskUnits="userSpaceOnUse" x="236" y="135" width="172" height="172">
<path d="M408 135H236V307H408V135Z" fill="white"/>
</mask>
<g mask="url(#mask0_53_18)">
<path d="M353.533 198.067C352.564 198.067 351.621 198.161 350.667 198.213V143.6C350.667 141.319 349.761 139.132 348.148 137.519C346.535 135.906 344.348 135 342.067 135H260.109C259.358 134.997 258.614 135.143 257.92 135.43C257.226 135.717 256.596 136.139 256.067 136.671L237.671 155.067C237.139 155.596 236.717 156.226 236.43 156.92C236.143 157.614 235.997 158.358 236 159.109V275.467C236 277.748 236.906 279.935 238.519 281.548C240.132 283.161 242.319 284.067 244.6 284.067H309.206C314.62 291.675 321.901 297.763 330.347 301.745C338.794 305.727 348.123 307.469 357.437 306.805C366.752 306.14 375.739 303.09 383.534 297.948C391.329 292.807 397.671 285.746 401.949 277.446C406.228 269.145 408.299 259.884 407.964 250.552C407.629 241.219 404.899 232.13 400.036 224.158C395.174 216.186 388.342 209.598 380.198 205.029C372.054 200.46 362.872 198.062 353.533 198.067ZM256.067 144.778V152.2C256.067 152.96 255.765 153.689 255.227 154.227C254.689 154.765 253.96 155.067 253.2 155.067H245.784L256.067 144.778ZM244.6 278.333C243.84 278.333 243.111 278.031 242.573 277.494C242.035 276.956 241.733 276.227 241.733 275.467V160.8H253.2C255.481 160.8 257.668 159.894 259.281 158.281C260.894 156.668 261.8 154.481 261.8 152.2V140.733H342.067C342.827 140.733 343.556 141.035 344.094 141.573C344.631 142.111 344.933 142.84 344.933 143.6V198.815C342.015 199.271 339.138 199.966 336.333 200.893V192.333C336.333 190.813 335.729 189.355 334.654 188.279C333.579 187.204 332.121 186.6 330.6 186.6H324.867C323.346 186.6 321.888 187.204 320.813 188.279C319.737 189.355 319.133 190.813 319.133 192.333V210.35C317.092 212.039 315.176 213.874 313.4 215.84V180.867C313.4 179.346 312.796 177.888 311.721 176.813C310.646 175.737 309.187 175.133 307.667 175.133H301.933C300.413 175.133 298.955 175.737 297.879 176.813C296.804 177.888 296.2 179.346 296.2 180.867V235.333C296.206 236.577 296.615 237.784 297.367 238.775C298.119 239.765 299.172 240.484 300.368 240.823C299.926 242.795 299.594 244.791 299.373 246.8H256.067C253.789 246.811 251.608 247.721 249.998 249.331C248.388 250.942 247.478 253.123 247.467 255.4C247.467 257.681 248.373 259.868 249.986 261.481C251.598 263.094 253.786 264 256.067 264H300.305C301.378 269.003 303.154 273.829 305.583 278.333H244.6ZM330.6 203.198C328.629 204.12 326.714 205.158 324.867 206.308V192.333H330.6V203.198ZM299.373 258.267H256.067C255.306 258.267 254.577 257.965 254.04 257.427C253.502 256.889 253.2 256.16 253.2 255.4C253.215 254.645 253.522 253.924 254.057 253.39C254.591 252.856 255.311 252.549 256.067 252.533H299.067C299.069 254.449 299.171 256.362 299.373 258.267ZM301.933 235.227V180.867H307.667V223.276C305.275 227.011 303.349 231.024 301.933 235.227ZM353.533 301.267C343.895 301.267 334.473 298.409 326.459 293.054C318.444 287.699 312.198 280.088 308.51 271.183C304.821 262.278 303.856 252.479 305.736 243.026C307.617 233.573 312.258 224.889 319.074 218.074C325.889 211.258 334.573 206.617 344.026 204.736C353.479 202.856 363.278 203.821 372.183 207.51C381.088 211.198 388.699 217.444 394.054 225.459C399.409 233.473 402.267 242.895 402.267 252.533C402.252 265.454 397.113 277.841 387.977 286.977C378.841 296.113 366.454 301.252 353.533 301.267Z" fill="#88BD2F"/>
<path d="M381.953 225.532C380.838 224.454 379.346 223.856 377.795 223.867C376.245 223.879 374.761 224.498 373.662 225.592L339.466 259.617L333.411 253.548C332.867 253.001 332.219 252.567 331.505 252.271C330.792 251.976 330.027 251.825 329.255 251.828C328.482 251.826 327.716 251.976 327.001 252.272C326.287 252.567 325.638 253.001 325.092 253.548L320.855 257.794C319.757 258.898 319.141 260.393 319.141 261.95C319.141 263.508 319.757 265.002 320.855 266.107L333.305 278.585C334.127 279.411 335.104 280.065 336.179 280.512C337.254 280.959 338.407 281.189 339.572 281.189C340.736 281.189 341.889 280.959 342.965 280.512C344.04 280.065 345.017 279.411 345.838 278.585L386.215 238.134C387.313 237.029 387.928 235.535 387.928 233.977C387.928 232.42 387.313 230.926 386.215 229.821L381.953 225.532ZM382.159 234.083L341.782 274.549C341.189 275.12 340.398 275.439 339.575 275.439C338.751 275.439 337.96 275.12 337.367 274.549L324.917 261.844L329.358 257.599L335.415 263.667C336.519 264.767 338.014 265.385 339.572 265.385C341.13 265.385 342.625 264.767 343.728 263.667L377.925 229.6L382.162 233.848C382.192 233.88 382.209 233.922 382.208 233.966C382.207 234.01 382.19 234.052 382.159 234.083Z" fill="#88BD2F"/>
<path d="M256.066 241.067H261.799C263.32 241.067 264.778 240.463 265.853 239.388C266.928 238.312 267.532 236.854 267.532 235.333V198.067C267.532 196.546 266.928 195.088 265.853 194.013C264.778 192.938 263.32 192.333 261.799 192.333H256.066C254.545 192.333 253.087 192.938 252.012 194.013C250.937 195.088 250.332 196.546 250.332 198.067V235.333C250.332 236.854 250.937 238.312 252.012 239.388C253.087 240.463 254.545 241.067 256.066 241.067ZM256.066 198.067H261.799V235.333H256.066V198.067Z" fill="#88BD2F"/>
<path d="M278.999 241.067H284.732C286.253 241.067 287.711 240.463 288.786 239.387C289.862 238.312 290.466 236.854 290.466 235.333V172.267C290.466 170.746 289.862 169.288 288.786 168.212C287.711 167.137 286.253 166.533 284.732 166.533H278.999C277.478 166.533 276.02 167.137 274.945 168.212C273.87 169.288 273.266 170.746 273.266 172.267V235.333C273.266 236.854 273.87 238.312 274.945 239.387C276.02 240.463 277.478 241.067 278.999 241.067ZM278.999 172.267H284.732V235.333H278.999V172.267Z" fill="#88BD2F"/>
<path d="M379.333 269.733H376.467V266.867C376.467 266.106 376.165 265.377 375.627 264.84C375.089 264.302 374.36 264 373.6 264C372.84 264 372.111 264.302 371.573 264.84C371.035 265.377 370.733 266.106 370.733 266.867V269.733H367.867C367.106 269.733 366.377 270.035 365.84 270.573C365.302 271.111 365 271.84 365 272.6C365 273.36 365.302 274.089 365.84 274.627C366.377 275.165 367.106 275.467 367.867 275.467H370.733V278.333C370.733 279.094 371.035 279.823 371.573 280.36C372.111 280.898 372.84 281.2 373.6 281.2C374.36 281.2 375.089 280.898 375.627 280.36C376.165 279.823 376.467 279.094 376.467 278.333V275.467H379.333C380.094 275.467 380.823 275.165 381.36 274.627C381.898 274.089 382.2 273.36 382.2 272.6C382.2 271.84 381.898 271.111 381.36 270.573C380.823 270.035 380.094 269.733 379.333 269.733Z" fill="#88BD2F"/>
</g>
</g>
<defs>
<clipPath id="clip0_53_18">
<rect width="644" height="454" fill="white"/>
</clipPath>
</defs>
</svg>
