<svg width="644" height="454" viewBox="0 0 644 454" fill="none" xmlns="http://www.w3.org/2000/svg">
<g clip-path="url(#clip0_53_105)">
<path d="M644 0H0V454H644V0Z" fill="#D9D9D9"/>
<path d="M644 0H0V454H644V0Z" fill="#ECF4DC"/>
<path d="M286.328 202.406H278.594C277.526 202.406 276.66 203.272 276.66 204.34V219.809C276.66 220.877 277.526 221.742 278.594 221.742H286.328C287.396 221.742 288.262 220.877 288.262 219.809V204.34C288.262 203.272 287.396 202.406 286.328 202.406ZM284.395 217.875H280.527V206.273H284.395V217.875Z" fill="#88BD2F"/>
<path d="M286.328 179.203H278.594C277.526 179.203 276.66 180.069 276.66 181.137V196.605C276.66 197.674 277.526 198.539 278.594 198.539H286.328C287.396 198.539 288.262 197.674 288.262 196.605V181.137C288.262 180.069 287.396 179.203 286.328 179.203ZM284.395 194.672H280.527V183.07H284.395V194.672Z" fill="#88BD2F"/>
<path d="M363.672 221.742H371.406C372.474 221.742 373.34 220.877 373.34 219.809V204.34C373.34 203.272 372.474 202.406 371.406 202.406H363.672C362.604 202.406 361.738 203.272 361.738 204.34V219.809C361.738 220.877 362.604 221.742 363.672 221.742ZM365.605 206.273H369.473V217.875H365.605V206.273Z" fill="#88BD2F"/>
<path d="M363.672 198.539H371.406C372.474 198.539 373.34 197.674 373.34 196.605V181.137C373.34 180.069 372.474 179.203 371.406 179.203H363.672C362.604 179.203 361.738 180.069 361.738 181.137V196.605C361.738 197.674 362.604 198.539 363.672 198.539ZM365.605 183.07H369.473V194.672H365.605V183.07Z" fill="#88BD2F"/>
<path d="M348.203 206.273C349.271 206.273 350.137 205.408 350.137 204.34V188.871C350.137 187.803 349.271 186.938 348.203 186.938H301.797C300.729 186.938 299.863 187.803 299.863 188.871V204.34C299.863 205.408 300.729 206.273 301.797 206.273H348.203ZM319.199 202.406V190.805H330.801V202.406H319.199ZM346.27 202.406H334.668V190.805H346.27V202.406ZM303.73 190.805H315.332V202.406H303.73V190.805Z" fill="#88BD2F"/>
<path d="M301.797 183.07H348.203C349.271 183.07 350.137 182.205 350.137 181.137V165.668C350.137 164.6 349.271 163.734 348.203 163.734H301.797C300.729 163.734 299.863 164.6 299.863 165.668V181.137C299.863 182.205 300.729 183.07 301.797 183.07ZM319.199 179.203V167.602H330.801V179.203H319.199ZM346.27 179.203H334.668V167.602H346.27V179.203ZM303.73 167.602H315.332V179.203H303.73V167.602Z" fill="#88BD2F"/>
<path d="M389.066 249.328H381.074V173.402C381.074 172.334 380.209 171.469 379.141 171.469H357.871V157.934C357.871 156.865 357.006 156 355.938 156H294.062C292.995 156 292.129 156.865 292.129 157.934V171.469H270.859C269.792 171.469 268.926 172.334 268.926 173.402V249.328H260.934C259.866 249.328 259 250.194 259 251.262V286.066C259 287.135 259.866 288 260.934 288H313.398C314.048 288 314.655 287.673 315.013 287.131C315.37 286.588 315.432 285.902 315.176 285.305L311.981 277.852L325.974 269.69C326.817 269.198 327.161 268.155 326.777 267.258L323.263 259.059L325 255.585L327.138 259.861C327.267 260.119 327.452 260.345 327.68 260.522L337.32 268.02L327.68 275.517C327.209 275.883 326.934 276.446 326.934 277.043C326.934 277.64 327.209 278.203 327.68 278.569L339.282 287.593C339.621 287.857 340.039 288 340.469 288H389.066C390.135 288 391 287.135 391 286.066V251.262C391 250.194 390.135 249.328 389.066 249.328ZM377.207 175.336V249.328H357.871V175.336H377.207ZM295.996 159.867H354.004V249.328H342.402V219.809C342.402 218.74 341.537 217.875 340.469 217.875H309.531C308.463 217.875 307.598 218.74 307.598 219.809V249.328H295.996V159.867ZM323.066 249.328H311.465V229.477H323.066V249.328ZM311.465 225.609V221.742H338.535V225.609H311.465ZM308.557 275.373C307.714 275.864 307.369 276.907 307.754 277.805L310.466 284.133H262.867V253.195H286.328C287.396 253.195 288.262 252.33 288.262 251.262C288.262 250.194 287.396 249.328 286.328 249.328H272.793V175.336H292.129V251.262C292.129 252.33 292.995 253.195 294.062 253.195H321.871L319.403 258.131C319.149 258.64 319.131 259.235 319.355 259.758L322.549 267.211L308.557 275.373ZM326.934 249.328V229.477H338.535V249.328H326.934ZM387.133 284.133H341.132L332.017 277.043L341.656 269.546C342.127 269.179 342.403 268.616 342.403 268.02C342.403 267.423 342.127 266.86 341.656 266.493L330.401 257.739L328.129 253.195H387.133V284.133Z" fill="#88BD2F"/>
<path d="M259 210.14C259 212.975 259.674 214.462 260.268 215.773C260.784 216.911 261.191 217.809 261.191 219.809C261.191 220.877 262.057 221.742 263.125 221.742C264.193 221.742 265.059 220.877 265.059 219.809C265.059 216.974 264.385 215.487 263.79 214.176C263.275 213.038 262.867 212.139 262.867 210.14C262.867 208.141 263.275 207.242 263.79 206.104C264.385 204.793 265.058 203.306 265.059 200.471C265.059 197.637 264.385 196.151 263.79 194.839C263.275 193.702 262.867 192.803 262.867 190.804C262.867 188.805 263.275 187.907 263.79 186.769C264.385 185.458 265.059 183.971 265.059 181.137C265.059 180.069 264.193 179.203 263.125 179.203C262.057 179.203 261.191 180.069 261.191 181.137C261.191 183.136 260.784 184.034 260.268 185.172C259.674 186.483 259 187.97 259 190.804C259 193.639 259.674 195.125 260.268 196.437C260.784 197.574 261.191 198.473 261.191 200.471C261.191 202.471 260.784 203.369 260.268 204.507C259.674 205.819 259 207.305 259 210.14Z" fill="#88BD2F"/>
<path d="M388.809 200.471C388.809 198.473 389.216 197.574 389.732 196.436C390.326 195.125 391 193.639 391 190.804C391 187.97 390.326 186.483 389.732 185.172C389.216 184.034 388.809 183.136 388.809 181.137C388.809 180.069 387.943 179.203 386.875 179.203C385.807 179.203 384.941 180.069 384.941 181.137C384.941 183.971 385.615 185.458 386.21 186.769C386.725 187.907 387.133 188.805 387.133 190.804C387.133 192.803 386.725 193.702 386.21 194.839C385.615 196.151 384.941 197.637 384.941 200.471C384.941 203.306 385.615 204.793 386.21 206.104C386.725 207.242 387.133 208.141 387.133 210.14C387.133 212.139 386.725 213.038 386.21 214.176C385.615 215.487 384.941 216.974 384.941 219.809C384.941 220.877 385.807 221.742 386.875 221.742C387.943 221.742 388.809 220.877 388.809 219.809C388.809 217.809 389.216 216.911 389.732 215.773C390.326 214.461 391 212.975 391 210.14C391 207.305 390.326 205.819 389.732 204.507C389.216 203.369 388.809 202.471 388.809 200.471Z" fill="#88BD2F"/>
</g>
<defs>
<clipPath id="clip0_53_105">
<rect width="644" height="454" fill="white"/>
</clipPath>
</defs>
</svg>
