<svg width="644" height="454" viewBox="0 0 644 454" fill="none" xmlns="http://www.w3.org/2000/svg">
<g clip-path="url(#clip0_53_67)">
<path d="M644 0H0V454H644V0Z" fill="#ECF4DC"/>
<mask id="mask0_53_67" style="mask-type:luminance" maskUnits="userSpaceOnUse" x="238" y="122" width="201" height="192">
<path d="M439 122H238V314H439V122Z" fill="white"/>
</mask>
<g mask="url(#mask0_53_67)">
<path d="M366.144 159.608C364.302 156.669 362.574 153.903 360.842 151.141C360.442 150.503 360.054 150.043 359.455 151.007C357.695 153.828 355.901 156.626 354.094 159.471C356.597 160.205 357.847 161.825 357.844 164.33C357.844 183.673 357.86 203.017 357.832 222.364C357.825 227.432 355.877 231.512 351.394 234.144C349.677 235.152 347.828 235.695 345.813 235.691C339.285 235.675 332.74 235.447 326.223 235.762C319.569 236.084 313.507 231.209 313.029 224.284C312.664 219.011 312.406 213.672 313.252 208.403C314.161 202.737 319.616 198.311 325.361 198.366C331.353 198.421 336.726 202.969 337.482 208.852C338.172 214.195 337.639 219.586 337.772 224.953C337.796 225.901 337.325 226.137 336.444 226.188C332.936 226.389 332.928 226.42 332.909 222.863C332.889 218.929 332.921 214.994 332.87 211.059C332.815 206.778 329.797 203.516 325.835 203.359C321.454 203.186 318.1 205.983 317.814 210.445C317.524 215.018 317.461 219.621 317.884 224.193C318.241 228.038 321.407 230.898 325.287 230.934C332.078 230.993 338.869 230.981 345.661 230.934C349.015 230.91 352.362 227.865 352.805 224.516C352.942 223.481 352.934 222.423 352.934 221.376C352.946 203.08 352.93 184.787 352.989 166.49C352.993 165.07 352.589 164.578 351.249 164.743C350.928 164.783 350.598 164.771 350.269 164.767C347.405 164.72 346.354 162.953 347.804 160.498C349.301 157.964 350.892 155.485 352.456 152.99C354.192 150.22 355.944 147.454 357.687 144.688C359.114 142.425 360.964 142.374 362.394 144.617C365.698 149.803 368.978 155.009 372.246 160.214C373.955 162.933 373.053 164.621 369.867 164.739C368.132 164.802 367.262 165.715 367.257 167.478C367.249 186.034 367.336 204.594 367.198 223.151C367.14 230.902 363.84 237.178 357.425 241.656C354.87 243.442 352.017 244.579 348.956 245.04C347.655 245.236 347.181 245.618 347.185 246.976C347.236 255.959 347.232 264.942 347.189 273.925C347.185 275.137 347.55 275.617 348.749 275.463C349.199 275.404 349.662 275.463 350.12 275.471C352.84 275.51 353.851 277.32 352.389 279.677C350.05 283.459 347.644 287.201 345.269 290.958C345.061 291.285 344.865 291.615 344.654 291.962C345.277 292.67 346.045 292.327 346.695 292.331C370.141 292.355 393.588 292.351 417.03 292.351C419.91 292.351 420.937 292.969 420.984 294.716C421.031 296.435 419.914 297.132 417.101 297.132C365.118 297.132 313.131 297.132 261.147 297.132C260.101 297.132 259.055 297.155 258.012 297.089C256.606 296.994 255.649 296.306 255.614 294.787C255.575 293.134 256.613 292.469 258.095 292.371C259.004 292.312 259.921 292.351 260.838 292.351C284.805 292.355 308.773 292.363 332.74 292.367C333.262 292.367 333.787 292.335 334.308 292.355C335.346 292.398 335.617 292.17 334.962 291.163C332.658 287.59 330.428 283.966 328.175 280.362C327.689 279.587 327.129 278.816 327.05 277.883C326.937 276.49 328.261 275.471 330.221 275.467C333.446 275.463 332.928 275.443 332.928 272.697C332.928 264.237 332.901 255.778 332.972 247.322C332.983 245.862 332.599 245.386 331.122 245.402C327.544 245.441 323.95 245.673 320.416 244.772C310.65 242.281 303.839 234.097 303.522 223.949C303.353 218.594 303.008 213.192 303.784 207.852C304.944 199.869 309.204 194.01 316.536 190.728C324.107 187.341 331.447 188.175 338.156 193.093C344.277 197.583 347.068 203.863 347.193 211.374C347.267 215.702 347.142 220.03 347.236 224.355C347.267 225.814 346.903 226.448 345.398 226.184C344.955 226.106 344.481 226.121 344.03 226.176C342.596 226.357 342.302 225.661 342.314 224.347C342.353 219.432 342.432 214.506 342.216 209.599C341.832 200.852 334.245 193.699 325.471 193.585C316.881 193.475 309.118 200.341 308.499 208.915C308.044 215.171 307.527 221.522 308.945 227.691C310.72 235.403 317.535 240.452 325.42 240.456C332.341 240.456 339.265 240.515 346.186 240.432C354.325 240.334 361.716 233.208 362.233 225.039C362.66 218.228 362.386 211.405 362.414 204.59C362.465 191.082 362.433 177.578 362.437 164.07C362.437 160.494 362.598 160.293 366.136 159.601L366.144 159.608ZM346.198 280.48C342.968 280.063 342.365 279.496 342.365 277.088C342.377 267.259 342.345 257.43 342.455 247.605C342.475 245.846 342.008 245.303 340.288 245.398C338.756 245.48 337.647 245.343 337.682 247.593C337.831 257.289 337.764 266.988 337.776 276.683C337.776 279.272 337.427 279.78 334.962 280.22C334.19 280.358 334.022 280.63 334.39 281.216C336.212 284.127 338.066 287.02 340.061 290.156C342.177 286.819 344.124 283.746 346.198 280.48Z" fill="#88BD2F"/>
<path d="M338.323 301.928C345.635 301.928 352.948 301.928 360.256 301.928C360.911 301.928 361.565 301.901 362.212 301.964C363.721 302.113 364.614 302.877 364.583 304.505C364.551 306.087 363.552 306.697 362.184 306.803C361.017 306.894 359.837 306.831 358.661 306.827C354.025 306.807 349.393 306.78 344.757 306.768C343.919 306.768 343.041 306.622 343.088 308.011C343.135 309.341 343.95 309.239 344.82 309.243C347.759 309.251 350.694 309.286 353.634 309.27C355.174 309.263 356.161 309.869 356.267 311.49C356.365 313.008 355.385 313.973 353.677 313.976C343.884 313.996 334.09 313.98 324.297 313.996C322.663 313.996 321.546 313.26 321.542 311.631C321.538 310.038 322.538 309.196 324.235 309.235C326.582 309.29 328.933 309.219 331.285 309.255C332.358 309.27 333.526 309.436 333.444 307.85C333.365 306.237 332.021 306.807 331.19 306.799C325.967 306.768 320.747 306.823 315.523 306.835C314.81 306.835 314.097 306.878 313.399 306.595C312.423 306.201 311.992 305.47 311.977 304.466C311.961 303.384 312.396 302.495 313.47 302.196C314.273 301.972 315.143 301.916 315.982 301.916C323.423 301.897 330.865 301.905 338.307 301.905V301.924L338.323 301.928Z" fill="#88BD2F"/>
<path d="M302.291 306.811C300.723 306.811 299.16 306.835 297.592 306.803C296.115 306.776 295.292 305.977 295.229 304.497C295.171 303.018 295.978 302.023 297.396 301.975C300.72 301.873 304.047 301.92 307.374 301.999C308.8 302.034 309.474 303.085 309.47 304.379C309.466 305.784 308.694 306.744 307.182 306.791C305.551 306.839 303.921 306.803 302.291 306.807V306.811Z" fill="#88BD2F"/>
<path d="M249.051 292.363C249.635 292.363 250.223 292.351 250.807 292.363C252.319 292.402 253.115 293.323 253.158 294.704C253.205 296.116 252.39 297.049 250.897 297.112C249.6 297.167 248.295 297.187 246.998 297.116C245.52 297.033 244.67 296.069 244.752 294.684C244.83 293.398 245.501 292.304 247.099 292.343C247.75 292.359 248.4 292.343 249.051 292.343C249.051 292.347 249.051 292.351 249.051 292.355V292.363Z" fill="#88BD2F"/>
<path d="M427.682 297.085C426.902 297.085 426.114 297.175 425.35 297.065C424.068 296.88 423.363 295.959 423.43 294.751C423.496 293.535 424.072 292.438 425.53 292.371C426.827 292.312 428.128 292.351 429.425 292.371C431.028 292.398 431.867 293.366 431.832 294.842C431.796 296.227 430.946 297.116 429.433 297.12C428.849 297.12 428.265 297.12 427.682 297.12C427.682 297.108 427.682 297.092 427.682 297.081V297.085Z" fill="#88BD2F"/>
<path d="M345.609 140.399C343.551 140.175 342.047 138.353 342.239 136.318C342.423 134.363 344.245 132.868 346.177 133.08C348.176 133.301 349.598 135.024 349.406 136.995C349.218 138.939 347.372 140.592 345.609 140.399ZM345.726 134.957C344.778 135.138 344.131 135.657 344.159 136.759C344.186 137.853 344.864 138.475 345.86 138.467C346.973 138.459 347.678 137.692 347.607 136.578C347.545 135.571 346.828 135.004 345.722 134.957H345.726Z" fill="#88BD2F"/>
<path d="M374.155 306.221C372.361 306.748 370.922 306.764 369.496 306.732C367.956 306.697 367.321 305.658 367.305 304.25C367.29 302.825 368.109 302.07 369.508 302.058C370.409 302.05 371.31 302.176 372.361 302.255C372.035 303.415 370.966 303.301 370.378 303.805C370.131 304.017 369.81 304.179 369.829 304.557C369.853 305.052 370.252 305.178 370.644 305.241C371.718 305.41 372.835 305.41 374.155 306.225V306.221Z" fill="#88BD2F"/>
<path d="M439 294.928C438.969 296.128 438.279 297.006 436.798 297.12C435.308 297.238 434.301 296.305 434.282 294.818C434.262 293.358 434.94 292.465 436.441 292.359C437.879 292.256 438.949 293.252 439 294.928Z" fill="#88BD2F"/>
<path d="M423.838 175.768C424.148 174.796 422.255 174.155 423.423 173.561C424.426 173.049 424.14 174.82 424.857 175.214C425.214 175.347 425.272 175.04 425.406 174.84C425.735 174.34 425.802 173.227 426.554 173.585C427.588 174.073 426.401 174.608 426.225 175.103C425.974 175.796 426.256 175.871 426.816 175.93C427.353 175.989 428.411 175.395 428.247 176.52C428.106 177.464 427.197 176.791 426.617 176.776C426.44 176.772 426.26 176.85 426.111 176.882C425.707 177.834 427.773 178.499 426.574 179.152C425.672 179.644 425.798 177.913 425.073 177.508C424.971 177.547 424.83 177.563 424.74 177.641C424.214 178.113 424.222 179.624 423.368 179.101C422.443 178.538 424.156 177.826 423.909 176.941C423.38 176.363 422.004 177.425 422.016 176.288C422.024 175.395 423.286 176.256 423.838 175.764V175.768Z" fill="#88BD2F"/>
<path d="M387.425 125.533C388.918 125.577 390.101 126.824 389.964 128.13C389.807 129.586 388.882 130.346 387.476 130.397C386.096 130.444 385.058 129.236 385.159 127.812C385.269 126.316 386.178 125.644 387.425 125.533ZM387.452 126.895C386.919 127.017 386.527 127.359 386.5 128.036C386.476 128.654 386.813 129 387.401 129.055C388.095 129.122 388.522 128.697 388.592 128.075C388.671 127.399 388.197 127.048 387.448 126.895H387.452Z" fill="#88BD2F"/>
<path d="M401.849 149.429C401.81 151.125 401.053 151.955 399.56 152.018C398.153 152.077 397.021 150.94 397.115 149.535C397.213 148.06 398.114 147.234 399.537 147.238C401.002 147.241 401.747 148.174 401.849 149.425V149.429ZM399.572 148.599C398.925 148.634 398.439 149.02 398.432 149.642C398.424 150.244 398.839 150.708 399.548 150.7C400.152 150.696 400.505 150.389 400.571 149.783C400.65 149.063 400.234 148.737 399.572 148.595V148.599Z" fill="#88BD2F"/>
<path d="M255.937 185.763C257.148 185.944 258.022 186.695 257.971 188.297C257.924 189.843 257.043 190.508 255.596 190.508C254.107 190.508 253.328 189.686 253.257 188.226C253.186 186.805 254.26 185.739 255.937 185.763ZM255.569 187.171C254.993 187.348 254.382 187.561 254.531 188.316C254.652 188.942 255.118 189.343 255.812 189.245C256.396 189.162 256.768 188.777 256.76 188.186C256.753 187.455 256.231 187.215 255.573 187.171H255.569Z" fill="#88BD2F"/>
<path d="M310.986 126.722C309.285 126.722 308.486 125.943 308.454 124.463C308.419 122.909 309.179 122 310.794 122C312.279 122 313.118 122.842 313.169 124.259C313.228 125.801 312.35 126.643 310.986 126.722ZM310.735 125.498C311.378 125.396 311.868 125.057 311.88 124.408C311.891 123.775 311.464 123.295 310.814 123.271C310.155 123.247 309.74 123.704 309.705 124.345C309.669 125.014 310.1 125.376 310.735 125.494V125.498Z" fill="#88BD2F"/>
<path d="M425.649 124.109C426.734 124.148 426.452 125.333 427.067 125.518C428.055 125.403 427.6 123.582 428.596 124.133C429.466 124.613 428.004 125.219 428.149 125.939C428.462 126.785 429.959 125.285 429.826 126.651C429.744 127.513 428.686 126.667 428.172 126.989C427.718 127.804 429.411 128.256 428.615 128.783C427.706 129.385 427.941 127.76 427.189 127.662C426.499 127.792 426.687 128.866 425.743 128.953C425.986 127.332 426.209 125.726 425.645 124.105L425.649 124.109Z" fill="#88BD2F"/>
<path d="M290.158 155.162C289.312 154.253 292.87 152.911 289.461 152.246C291.021 152.187 291.228 151.715 290.378 150.779C290.108 150.484 289.606 150.023 290.202 149.661C290.648 149.394 290.883 149.925 290.985 150.279C291.577 152.321 293.329 152.093 294.888 152.101C294.818 152.77 294.469 152.73 294.156 152.774C293.627 152.845 292.945 152.172 292.592 152.907C292.329 153.454 293.015 153.781 293.297 154.186C293.548 154.544 293.717 154.895 293.309 155.194C293.039 155.39 292.847 155.135 292.753 154.883C291.844 152.435 291.24 153.683 290.617 155.044C290.574 155.142 290.3 155.131 290.158 155.166V155.162Z" fill="#88BD2F"/>
<path d="M238 295.534C240.763 295.526 241.112 295.113 240.375 292.823C241.699 292.985 242.189 293.779 242.197 294.909C242.209 296.042 241.515 296.738 240.469 296.955C239.391 297.179 238.415 297.002 238 295.53V295.534Z" fill="#88BD2F"/>
</g>
</g>
<defs>
<clipPath id="clip0_53_67">
<rect width="644" height="454" fill="white"/>
</clipPath>
</defs>
</svg>
