<svg width="644" height="454" viewBox="0 0 644 454" fill="none" xmlns="http://www.w3.org/2000/svg">
<g clip-path="url(#clip0_53_122)">
<path d="M644 0H0V454H644V0Z" fill="#ECF4DC"/>
<mask id="mask0_53_122" style="mask-type:luminance" maskUnits="userSpaceOnUse" x="262" y="150" width="146" height="146">
<path d="M408 150H262V296H408V150Z" fill="white"/>
</mask>
<g mask="url(#mask0_53_122)">
<path d="M408 264.367C408 260.335 404.732 257.067 400.7 257.067H386.1V242.467H390.967C391.911 242.466 392.769 241.92 393.169 241.065C393.57 240.211 393.44 239.201 392.835 238.476L380.669 223.876C380.192 223.346 379.513 223.043 378.8 223.043C378.087 223.043 377.408 223.346 376.931 223.876L364.765 238.476C364.16 239.201 364.03 240.211 364.431 241.065C364.831 241.92 365.689 242.466 366.633 242.467H371.5V257.067H342.3V252.2H347.167C348.111 252.2 348.969 251.653 349.369 250.799C349.77 249.944 349.64 248.935 349.035 248.209L336.869 233.609C336.392 233.079 335.713 232.777 335 232.777C334.287 232.777 333.608 233.079 333.131 233.609L320.965 248.209C320.36 248.935 320.23 249.944 320.631 250.799C321.031 251.653 321.889 252.2 322.833 252.2H327.7V257.067H298.5V242.467H303.367C304.311 242.466 305.169 241.92 305.569 241.065C305.97 240.211 305.84 239.201 305.235 238.476L293.069 223.876C292.592 223.346 291.913 223.043 291.2 223.043C290.487 223.043 289.808 223.346 289.331 223.876L277.165 238.476C276.56 239.201 276.43 240.211 276.831 241.065C277.231 241.92 278.089 242.466 279.033 242.467H283.9V257.067H269.3C265.268 257.067 262 260.335 262 264.367C262 268.398 265.268 271.667 269.3 271.667H274.488L267.903 281.541C264.228 282.274 261.705 285.672 262.065 289.402C262.426 293.132 265.552 295.984 269.3 296H400.7C404.732 296 408 292.732 408 288.7C408 284.668 404.732 281.4 400.7 281.4H395.512L402.097 271.526C405.523 270.858 407.997 267.858 408 264.367ZM373.933 237.6H371.828L378.8 229.234L385.772 237.6H383.667C382.323 237.6 381.233 238.689 381.233 240.033V257.067H376.367V240.033C376.367 238.689 375.277 237.6 373.933 237.6ZM330.133 247.333H328.029L335 238.968L341.972 247.333H339.867C338.523 247.333 337.433 248.423 337.433 249.767V257.067H332.567V249.767C332.567 248.423 331.477 247.333 330.133 247.333ZM286.333 237.6H284.229L291.2 229.234L298.172 237.6H296.067C294.723 237.6 293.633 238.689 293.633 240.033V257.067H288.767V240.033C288.767 238.689 287.677 237.6 286.333 237.6ZM266.867 264.367C266.867 263.023 267.956 261.933 269.3 261.933H400.7C402.044 261.933 403.133 263.023 403.133 264.367C403.133 265.711 402.044 266.8 400.7 266.8H269.3C267.956 266.8 266.867 265.711 266.867 264.367ZM371.179 281.4L377.669 271.667H383.995L377.505 281.4H371.179ZM298.821 271.667L292.332 281.4H286.005L292.495 271.667H298.821ZM304.661 271.667H310.988L304.498 281.4H298.172L304.661 271.667ZM316.828 271.667H323.155L316.665 281.4H310.338L316.828 271.667ZM328.995 271.667H335.321L328.832 281.4H322.505L328.995 271.667ZM341.161 271.667H347.488L340.998 281.4H334.672L341.161 271.667ZM353.328 271.667H359.655L353.165 281.4H346.838L353.328 271.667ZM365.495 271.667H371.821L365.332 281.4H359.005L365.495 271.667ZM286.655 271.667L280.165 281.4H273.838L280.328 271.667H286.655ZM403.133 288.7C403.133 290.044 402.044 291.133 400.7 291.133H269.3C267.956 291.133 266.867 290.044 266.867 288.7C266.867 287.356 267.956 286.267 269.3 286.267H400.7C402.044 286.267 403.133 287.356 403.133 288.7ZM383.345 281.4L389.835 271.667H396.162L389.672 281.4H383.345Z" fill="#88BD2F"/>
<path d="M308.234 201.1C308.252 215.876 320.225 227.849 335.001 227.867C335.787 227.867 336.539 227.823 337.269 227.752C351.11 226.564 361.747 214.992 361.768 201.1C361.963 190.633 358.237 180.472 351.321 172.613C350.537 171.83 349.323 171.677 348.368 172.239C347.413 172.801 346.959 173.937 347.263 175.003C348.131 178.042 349.268 185.186 347.246 187.87C346.65 188.637 345.699 189.04 344.734 188.933C342.508 188.933 341.958 188.04 341.751 187.717C340.087 185.023 341.914 178.124 344.479 172.997C347.443 167.561 347.423 160.986 344.425 155.567C342.49 152.175 338.906 150.058 335.001 150C334.125 150.005 333.319 150.481 332.891 151.246C332.463 152.014 332.477 152.953 332.928 153.708C333.2 154.163 335.451 158.276 330.847 162.88C327.827 165.645 325.468 169.055 323.946 172.856C321.146 170.002 317.588 168.007 313.692 167.106C312.831 166.89 311.92 167.161 311.316 167.812C310.712 168.464 310.511 169.393 310.792 170.236C312.133 175.376 312.115 180.777 310.741 185.909C309.27 190.847 308.428 195.951 308.234 201.1ZM326.178 218.33C324.268 215.514 323.526 212.067 324.107 208.714C325.819 210.081 327.944 210.828 330.134 210.833C331.478 210.833 332.568 209.744 332.568 208.4C332.568 208.368 332.568 206.908 332.796 204.923C334.433 207.181 337.08 208.483 339.868 208.4C342.004 208.395 344.078 207.684 345.769 206.378C346.311 210.296 346.443 215.853 343.783 219.421C341.627 221.991 338.34 223.331 335.001 223C331.494 222.899 328.233 221.174 326.178 218.33ZM315.471 187.091C316.614 182.561 316.911 177.859 316.35 173.221C319.304 174.584 321.658 176.981 322.968 179.959C323.354 181.076 324.487 181.754 325.653 181.567C326.82 181.38 327.684 180.381 327.701 179.2C327.701 172.907 331.986 168.622 334.288 166.32C337.137 163.712 338.693 159.982 338.544 156.122C339.237 156.68 339.826 157.355 340.284 158.118C342.41 162.098 342.345 166.891 340.111 170.812C339.028 172.983 333.804 184.123 337.6 190.264C339.148 192.665 341.887 194.022 344.734 193.8C347.227 193.9 349.613 192.781 351.129 190.8C352.437 188.859 353.158 186.582 353.205 184.242C355.662 189.521 356.924 195.277 356.901 201.1C356.901 207.036 354.482 212.716 350.202 216.829C351.269 211.375 351.028 205.745 349.499 200.402C349.214 199.448 348.376 198.764 347.385 198.675C346.393 198.586 345.448 199.11 344.997 199.998C343.983 201.957 342.06 203.282 339.868 203.533C335.103 203.533 335.001 196.525 335.001 196.233C335.002 195.104 334.226 194.122 333.126 193.863C332.027 193.603 330.894 194.135 330.39 195.146C328.954 198.378 328.098 201.837 327.859 205.366C326.671 204.658 325.69 203.651 325.012 202.446C324.573 201.564 323.645 201.034 322.662 201.104C321.679 201.174 320.836 201.829 320.525 202.764C318.746 207.369 318.611 212.448 320.143 217.141C315.658 213.012 313.104 207.196 313.101 201.1C313.3 196.35 314.093 191.644 315.461 187.091H315.471Z" fill="#88BD2F"/>
</g>
</g>
<defs>
<clipPath id="clip0_53_122">
<rect width="644" height="454" fill="white"/>
</clipPath>
</defs>
</svg>
